{
	"asset":{
		"generator":"Khronos glTF Blender I/O v3.6.27",
		"version":"2.0"
	},
	"extensionsUsed":[
		"KHR_materials_transmission",
		"KHR_materials_specular"
	],
	"scene":0,
	"scenes":[
		{
			"name":"Scene",
			"nodes":[
				0
			]
		}
	],
	"nodes":[
		{
			"mesh":0,
			"name":"Su-47 Berkut",
			"rotation":[
				0.7071068286895752,
				0,
				0,
				0.7071068286895752
			]
		}
	],
	"materials":[
		{
			"doubleSided":true,
			"extensions":{
				"KHR_materials_transmission":{
					"transmissionFactor":1
				},
				"KHR_materials_specular":{
					"specularColorFactor":[
						1,
						1,
						1
					]
				}
			},
			"name":"7ae22c26_dds",
			"pbrMetallicRoughness":{
				"baseColorTexture":{
					"index":0
				},
				"metallicFactor":0,
				"roughnessFactor":0.8999999761581421
			}
		}
	],
	"meshes":[
		{
			"name":"Su-47 Berkut",
			"primitives":[
				{
					"attributes":{
						"POSITION":0,
						"NORMAL":1,
						"TEXCOORD_0":2
					},
					"indices":3,
					"material":0
				}
			]
		}
	],
	"textures":[
		{
			"sampler":0,
			"source":0
		}
	],
	"images":[
		{
			"bufferView":4,
			"mimeType":"image/png",
			"name":"texture_0001.dds"
		}
	],
	"accessors":[
		{
			"bufferView":0,
			"componentType":5126,
			"count":7672,
			"max":[
				8.339458465576172,
				11.512774467468262,
				-0.06951899826526642
			],
			"min":[
				-8.347845077514648,
				-13.144865036010742,
				-5.475902080535889
			],
			"type":"VEC3"
		},
		{
			"bufferView":1,
			"componentType":5126,
			"count":7672,
			"type":"VEC3"
		},
		{
			"bufferView":2,
			"componentType":5126,
			"count":7672,
			"type":"VEC2"
		},
		{
			"bufferView":3,
			"componentType":5123,
			"count":19236,
			"type":"SCALAR"
		}
	],
	"bufferViews":[
		{
			"buffer":0,
			"byteLength":92064,
			"byteOffset":0,
			"target":34962
		},
		{
			"buffer":0,
			"byteLength":92064,
			"byteOffset":92064,
			"target":34962
		},
		{
			"buffer":0,
			"byteLength":61376,
			"byteOffset":184128,
			"target":34962
		},
		{
			"buffer":0,
			"byteLength":38472,
			"byteOffset":245504,
			"target":34963
		},
		{
			"buffer":0,
			"byteLength":1114883,
			"byteOffset":283976
		}
	],
	"samplers":[
		{
			"magFilter":9729,
			"minFilter":9987
		}
	],
	"buffers":[
		{
			"byteLength":1398860,
			"uri":"data:application/octet-stream;base64,"
		}
	]
}
