{
	"asset":{
		"generator":"Khronos glTF Blender I/O v3.6.27",
		"version":"2.0"
	},
	"extensionsUsed":[
		"KHR_materials_transmission",
		"KHR_materials_specular"
	],
	"scene":0,
	"scenes":[
		{
			"name":"Scene",
			"nodes":[
				0
			]
		}
	],
	"nodes":[
		{
			"mesh":0,
			"name":"CFA-44 Nosferatu",
			"rotation":[
				0.7071068286895752,
				0,
				0,
				0.7071068286895752
			]
		}
	],
	"materials":[
		{
			"doubleSided":true,
			"extensions":{
				"KHR_materials_transmission":{
					"transmissionFactor":1
				},
				"KHR_materials_specular":{
					"specularColorFactor":[
						1,
						1,
						1
					]
				}
			},
			"name":"46ecd0eb_dds",
			"pbrMetallicRoughness":{
				"baseColorTexture":{
					"index":0
				},
				"metallicRoughnessTexture":{
					"index":1
				},
				"roughnessFactor":0.8999999761581421
			}
		}
	],
	"meshes":[
		{
			"name":"CFA-44 Nosferatu",
			"primitives":[
				{
					"attributes":{
						"POSITION":0,
						"NORMAL":1,
						"TEXCOORD_0":2
					},
					"indices":3,
					"material":0
				}
			]
		}
	],
	"textures":[
		{
			"sampler":0,
			"source":0
		},
		{
			"sampler":0,
			"source":1
		}
	],
	"images":[
		{
			"bufferView":4,
			"mimeType":"image/png",
			"name":"texture_0000"
		},
		{
			"bufferView":5,
			"mimeType":"image/png",
			"name":"texture_0004"
		}
	],
	"accessors":[
		{
			"bufferView":0,
			"componentType":5126,
			"count":20393,
			"max":[
				7.32529878616333,
				12.441262245178223,
				-0.03896100074052811
			],
			"min":[
				-7.255136013031006,
				-11.598825454711914,
				-5.0653839111328125
			],
			"type":"VEC3"
		},
		{
			"bufferView":1,
			"componentType":5126,
			"count":20393,
			"type":"VEC3"
		},
		{
			"bufferView":2,
			"componentType":5126,
			"count":20393,
			"type":"VEC2"
		},
		{
			"bufferView":3,
			"componentType":5123,
			"count":30039,
			"type":"SCALAR"
		}
	],
	"bufferViews":[
		{
			"buffer":0,
			"byteLength":244716,
			"byteOffset":0,
			"target":34962
		},
		{
			"buffer":0,
			"byteLength":244716,
			"byteOffset":244716,
			"target":34962
		},
		{
			"buffer":0,
			"byteLength":163144,
			"byteOffset":489432,
			"target":34962
		},
		{
			"buffer":0,
			"byteLength":60078,
			"byteOffset":652576,
			"target":34963
		},
		{
			"buffer":0,
			"byteLength":1287956,
			"byteOffset":712656
		},
		{
			"buffer":0,
			"byteLength":326659,
			"byteOffset":2000612
		}
	],
	"samplers":[
		{
			"magFilter":9729,
			"minFilter":9987
		}
	],
	"buffers":[
		{
			"byteLength":2327272,
			"uri":"data:application/octet-stream;base64,"
		}
	]
}
