{
	"asset":{
		"generator":"Khronos glTF Blender I/O v3.6.27",
		"version":"2.0"
	},
	"extensionsUsed":[
		"KHR_materials_transmission",
		"KHR_materials_specular"
	],
	"scene":0,
	"scenes":[
		{
			"name":"Scene",
			"nodes":[
				0
			]
		}
	],
	"nodes":[
		{
			"mesh":0,
			"name":"Rafale M",
			"rotation":[
				0.7071068286895752,
				0,
				0,
				0.7071068286895752
			]
		}
	],
	"materials":[
		{
			"doubleSided":true,
			"extensions":{
				"KHR_materials_transmission":{
					"transmissionFactor":1
				},
				"KHR_materials_specular":{
					"specularColorFactor":[
						1,
						1,
						1
					]
				}
			},
			"name":"03fef56a_dds",
			"pbrMetallicRoughness":{
				"baseColorTexture":{
					"index":0
				},
				"metallicFactor":0,
				"roughnessFactor":0.8999999761581421
			}
		}
	],
	"meshes":[
		{
			"name":"Rafale M",
			"primitives":[
				{
					"attributes":{
						"POSITION":0,
						"NORMAL":1,
						"TEXCOORD_0":2
					},
					"indices":3,
					"material":0
				}
			]
		}
	],
	"textures":[
		{
			"sampler":0,
			"source":0
		}
	],
	"images":[
		{
			"bufferView":4,
			"mimeType":"image/png",
			"name":"texture_0003"
		}
	],
	"accessors":[
		{
			"bufferView":0,
			"componentType":5126,
			"count":12025,
			"max":[
				5.390006065368652,
				7.614404201507568,
				-0.06646899878978729
			],
			"min":[
				-5.361874103546143,
				-8.162595748901367,
				-5.472753047943115
			],
			"type":"VEC3"
		},
		{
			"bufferView":1,
			"componentType":5126,
			"count":12025,
			"type":"VEC3"
		},
		{
			"bufferView":2,
			"componentType":5126,
			"count":12025,
			"type":"VEC2"
		},
		{
			"bufferView":3,
			"componentType":5123,
			"count":26847,
			"type":"SCALAR"
		}
	],
	"bufferViews":[
		{
			"buffer":0,
			"byteLength":144300,
			"byteOffset":0,
			"target":34962
		},
		{
			"buffer":0,
			"byteLength":144300,
			"byteOffset":144300,
			"target":34962
		},
		{
			"buffer":0,
			"byteLength":96200,
			"byteOffset":288600,
			"target":34962
		},
		{
			"buffer":0,
			"byteLength":53694,
			"byteOffset":384800,
			"target":34963
		},
		{
			"buffer":0,
			"byteLength":1106738,
			"byteOffset":438496
		}
	],
	"samplers":[
		{
			"magFilter":9729,
			"minFilter":9987
		}
	],
	"buffers":[
		{
			"byteLength":1545236,
			"uri":"data:application/octet-stream;base64,"
		}
	]
}
