{
	"asset":{
		"generator":"Khronos glTF Blender I/O v3.6.27",
		"version":"2.0"
	},
	"extensionsUsed":[
		"KHR_materials_transmission",
		"KHR_materials_specular"
	],
	"scene":0,
	"scenes":[
		{
			"name":"Scene",
			"nodes":[
				0,
				1,
				2
			]
		}
	],
	"nodes":[
		{
			"mesh":0,
			"name":"KA-50 Hokum",
			"rotation":[
				0.7071068286895752,
				0,
				0,
				0.7071068286895752
			]
		},
		{
			"mesh":1,
			"name":"Top blade",
			"rotation":[
				-0.05879803001880646,
				-0.10684159398078918,
				-0.023917239159345627,
				0.9922478795051575
			],
			"translation":[
				0.03858959302306175,
				4.812291622161865,
				0.18484993278980255
			]
		},
		{
			"mesh":2,
			"name":"Down blade",
			"rotation":[
				0,
				0.10811886936426163,
				0,
				0.9941380023956299
			],
			"translation":[
				0.036814164370298386,
				3.470127582550049,
				0.061882875859737396
			]
		}
	],
	"animations":[
		{
			"channels":[
				{
					"sampler":0,
					"target":{
						"node":1,
						"path":"rotation"
					}
				}
			],
			"name":"Top bladeAction",
			"samplers":[
				{
					"input":12,
					"interpolation":"LINEAR",
					"output":13
				}
			]
		},
		{
			"channels":[
				{
					"sampler":0,
					"target":{
						"node":2,
						"path":"rotation"
					}
				}
			],
			"name":"Down bladeAction",
			"samplers":[
				{
					"input":12,
					"interpolation":"LINEAR",
					"output":14
				}
			]
		}
	],
	"materials":[
		{
			"doubleSided":true,
			"extensions":{
				"KHR_materials_transmission":{
					"transmissionFactor":1
				},
				"KHR_materials_specular":{
					"specularColorFactor":[
						1,
						1,
						1
					]
				}
			},
			"name":"d6043e25_dds",
			"pbrMetallicRoughness":{
				"baseColorTexture":{
					"index":0
				},
				"metallicFactor":0,
				"roughnessFactor":0.8999999761581421
			}
		}
	],
	"meshes":[
		{
			"name":"KA-50 Hokum",
			"primitives":[
				{
					"attributes":{
						"POSITION":0,
						"NORMAL":1,
						"TEXCOORD_0":2
					},
					"indices":3,
					"material":0
				}
			]
		},
		{
			"name":"KA-50 Hokum.001",
			"primitives":[
				{
					"attributes":{
						"POSITION":4,
						"NORMAL":5,
						"TEXCOORD_0":6
					},
					"indices":7,
					"material":0
				}
			]
		},
		{
			"name":"KA-50 Hokum.002",
			"primitives":[
				{
					"attributes":{
						"POSITION":8,
						"NORMAL":9,
						"TEXCOORD_0":10
					},
					"indices":11,
					"material":0
				}
			]
		}
	],
	"textures":[
		{
			"sampler":0,
			"source":0
		}
	],
	"images":[
		{
			"bufferView":4,
			"mimeType":"image/png",
			"name":"texture_0001.dds"
		}
	],
	"accessors":[
		{
			"bufferView":0,
			"componentType":5126,
			"count":14435,
			"max":[
				3.771476984024048,
				6.372966766357422,
				-0.08432599902153015
			],
			"min":[
				-3.6934280395507812,
				-8.523805618286133,
				-5.177775859832764
			],
			"type":"VEC3"
		},
		{
			"bufferView":1,
			"componentType":5126,
			"count":14435,
			"type":"VEC3"
		},
		{
			"bufferView":2,
			"componentType":5126,
			"count":14435,
			"type":"VEC2"
		},
		{
			"bufferView":3,
			"componentType":5123,
			"count":33498,
			"type":"SCALAR"
		},
		{
			"bufferView":5,
			"componentType":5126,
			"count":2154,
			"max":[
				4.792775630950928,
				0.3635292053222656,
				6.828155994415283
			],
			"min":[
				-7.217238426208496,
				-1.0844061374664307,
				-5.752178192138672
			],
			"type":"VEC3"
		},
		{
			"bufferView":6,
			"componentType":5126,
			"count":2154,
			"type":"VEC3"
		},
		{
			"bufferView":7,
			"componentType":5126,
			"count":2154,
			"type":"VEC2"
		},
		{
			"bufferView":8,
			"componentType":5123,
			"count":4212,
			"type":"SCALAR"
		},
		{
			"bufferView":9,
			"componentType":5126,
			"count":3021,
			"max":[
				7.242290019989014,
				0.7215514183044434,
				5.957433223724365
			],
			"min":[
				-4.276364326477051,
				-1.4862138032913208,
				-6.689524173736572
			],
			"type":"VEC3"
		},
		{
			"bufferView":10,
			"componentType":5126,
			"count":3021,
			"type":"VEC3"
		},
		{
			"bufferView":11,
			"componentType":5126,
			"count":3021,
			"type":"VEC2"
		},
		{
			"bufferView":12,
			"componentType":5123,
			"count":5589,
			"type":"SCALAR"
		},
		{
			"bufferView":13,
			"componentType":5126,
			"count":30,
			"max":[
				0.5
			],
			"min":[
				0.016666666666666666
			],
			"type":"SCALAR"
		},
		{
			"bufferView":14,
			"componentType":5126,
			"count":30,
			"type":"VEC4"
		},
		{
			"bufferView":15,
			"componentType":5126,
			"count":30,
			"type":"VEC4"
		}
	],
	"bufferViews":[
		{
			"buffer":0,
			"byteLength":173220,
			"byteOffset":0,
			"target":34962
		},
		{
			"buffer":0,
			"byteLength":173220,
			"byteOffset":173220,
			"target":34962
		},
		{
			"buffer":0,
			"byteLength":115480,
			"byteOffset":346440,
			"target":34962
		},
		{
			"buffer":0,
			"byteLength":66996,
			"byteOffset":461920,
			"target":34963
		},
		{
			"buffer":0,
			"byteLength":1510155,
			"byteOffset":528916
		},
		{
			"buffer":0,
			"byteLength":25848,
			"byteOffset":2039072,
			"target":34962
		},
		{
			"buffer":0,
			"byteLength":25848,
			"byteOffset":2064920,
			"target":34962
		},
		{
			"buffer":0,
			"byteLength":17232,
			"byteOffset":2090768,
			"target":34962
		},
		{
			"buffer":0,
			"byteLength":8424,
			"byteOffset":2108000,
			"target":34963
		},
		{
			"buffer":0,
			"byteLength":36252,
			"byteOffset":2116424,
			"target":34962
		},
		{
			"buffer":0,
			"byteLength":36252,
			"byteOffset":2152676,
			"target":34962
		},
		{
			"buffer":0,
			"byteLength":24168,
			"byteOffset":2188928,
			"target":34962
		},
		{
			"buffer":0,
			"byteLength":11178,
			"byteOffset":2213096,
			"target":34963
		},
		{
			"buffer":0,
			"byteLength":120,
			"byteOffset":2224276
		},
		{
			"buffer":0,
			"byteLength":480,
			"byteOffset":2224396
		},
		{
			"buffer":0,
			"byteLength":480,
			"byteOffset":2224876
		}
	],
	"samplers":[
		{
			"magFilter":9729,
			"minFilter":9987
		}
	],
	"buffers":[
		{
			"byteLength":2225356,
			"uri":"data:application/octet-stream;base64,"
		}
	]
}
